<svg xmlns="http://www.w3.org/2000/svg" viewBox="0 0 455.99 83.34"><defs><style>.cls-1{fill:#fff;}</style></defs><title>hkmlogo</title><g id="图层_2" data-name="图层 2"><g id="图层_1-2" data-name="图层 1"><path class="cls-1" d="M227.26,2.38l34-2.38-11.9,20.56c9.84,6.64,15.95,15.93,15.95,26.22,0,20.19-23.56,36.56-52.63,36.56S160.09,67,160.09,46.78s23.56-36.56,52.62-36.56a74.59,74.59,0,0,1,13.65,1.24l3.23-5.54ZM230,54.13H253.4a19,19,0,0,0,1.51-7.35c0-6.91-3.86-13.23-10.23-18.08Zm21.9,3H183.27V52.88a3.28,3.28,0,1,1,3,0v1.22h15.28L221.58,19.7a62.58,62.58,0,0,0-8.87-.62c-23.3,0-42.19,12.4-42.19,27.7s18.89,27.7,42.19,27.7c17.73,0,32.91-7.18,39.15-17.35"/><path class="cls-1" d="M123.19,67.58,113.13,45.85V67.58h-9.2V26h9.2l14.66,31.66L142.45,26h9.2v41.6h-9.2V45.85L132.39,67.58Zm-36.7,0L68,49,61.8,55.17V67.58H52.6V26h9.2V43.44L79.29,26H91L73.83,43.16l24.4,24.42ZM0,67.58V26H9.2V42.69H34.92V26h9.21v41.6H34.92V50.86H9.2V67.58Z"/><path class="cls-1" d="M274.73,50.46V45.18H317v5.28Zm.91,17.47V63.38q6.18-2.91,8.92-10.56h8.73Q289.28,65.19,275.64,67.93Zm8-40A75.47,75.47,0,0,1,288.2,43h-7.65a71.08,71.08,0,0,0-4-15.11Zm12.74,0A68.81,68.81,0,0,1,300.94,43h-7.83a70.78,70.78,0,0,0-3.82-15.11Zm19.65,40q-13.65-2.73-17.65-15.11h8.73q2.73,7.65,8.92,10.56Zm-8-40.4h8A40.14,40.14,0,0,1,309.31,43h-7.1A46.46,46.46,0,0,0,308,27.53Z"/><path class="cls-1" d="M342.43,25.71h4.19v2.36h15.1v5.28H349.89q3.27,2.19,10.74,3.82v4.19h2.91v5.28h-4.37V61.38q0,6-6.19,6h-5.82V62.65h2.37c1.33.12,1.94-.55,1.82-2v-14h-30V41.36h2.91V37.17c5.1-1.09,8.67-2.36,10.74-3.82H323.14V28.07h15.1V25.71Zm5.28,22.93V57q.18,6.56-6.19,6.37h-16V48.64Zm-5.28-12.92q-5.64,4.37-16.56,5.64H359Q348.07,40.08,342.43,35.72Zm-10,18.19v4.74h6.37c1.21.12,1.82-.61,1.82-2.19V53.91Z"/><path class="cls-1" d="M368.09,38.81V34.62a10.33,10.33,0,0,0,5.09-7.82h8.19a4.29,4.29,0,0,0-.54,1.64.52.52,0,0,0-.18.36H385V26.07h8.56V28.8H409.4v3.82H393.57v2H409.4v3.83H393.57v2H409.4v3.82H393.57v2.18H409.4v3.83H393.57V53H410v4.37h-6.56q1.65,3.83,6.56,6v4.18q-11.11-1.82-14.38-10.19h-2V67.75H385V57.37h-2.54q-3.29,8.19-14.38,10.19V63.38q4.91-2.19,6.55-6h-6.55V53H385V50.28H369.18V38.81Zm9.1-.36v2H385v-2Zm0,5.82v2.18H385V44.27Zm1.64-11.65a3,3,0,0,1-.55.73,8.67,8.67,0,0,1-.91,1.27H385v-2Z"/><path class="cls-1" d="M415.22,67V26.8H456V59.37q.18,8-7.46,7.65ZM444.89,54.1q.36,6.91-6.19,6.55H434V55.92h1.45c1.34.12,1.94-.49,1.82-1.82V41.54h-.18Q436,55.19,424.87,60.65V55.37q4.54-5.09,4.91-13.83h-4.91V36.63h12.37v-3.1h7.65v3.1h2.91V32.08H423.41v30h22.2c1.58.13,2.31-.66,2.19-2.36V41.54h-2.91Z"/></g></g></svg>